<?xml version="1.0" standalone="no"?>
<!DOCTYPE svg PUBLIC "-//W3C//DTD SVG 20010904//EN"
 "http://www.w3.org/TR/2001/REC-SVG-20010904/DTD/svg10.dtd">
<svg version="1.0" xmlns="http://www.w3.org/2000/svg"
 width="700.000000pt" height="700.000000pt" viewBox="0 0 700.000000 700.000000"
 preserveAspectRatio="xMidYMid meet">
<metadata>
Created by potrace 1.14, written by Peter Selinger 2001-2017
</metadata>
<g transform="translate(0.000000,700.000000) scale(0.100000,-0.100000)"
fill="#000000" stroke="none">
<path d="M3528 5291 l-3 -1489 -105 38 c-58 21 -361 132 -675 245 -313 114
-617 224 -675 245 -58 21 -238 87 -400 145 -162 58 -311 112 -330 120 -19 7
-174 63 -345 124 -171 62 -317 115 -325 118 -8 3 -36 14 -62 23 l-47 16 0
-260 -1 -261 123 -44 c67 -24 183 -65 257 -91 261 -94 706 -252 820 -292 63
-22 124 -44 135 -48 11 -4 58 -22 105 -38 47 -17 148 -53 225 -80 77 -28 320
-114 540 -192 220 -78 409 -145 420 -150 11 -5 90 -34 175 -64 176 -62 174
-50 15 -106 -156 -55 -252 -89 -395 -140 -80 -29 -163 -58 -185 -65 -22 -8
-96 -34 -165 -58 -69 -25 -201 -72 -295 -105 -93 -33 -375 -133 -625 -222
-250 -89 -529 -188 -620 -220 -91 -32 -242 -85 -336 -119 -94 -33 -175 -61
-182 -61 -7 0 -11 -77 -11 -264 l-1 -265 83 29 c45 16 107 38 137 50 30 11 96
35 145 52 50 17 104 36 120 44 17 7 50 19 75 27 25 9 101 36 170 62 69 25 132
48 140 50 8 3 202 72 430 155 228 84 696 254 1040 379 l625 226 3 -777 2 -778
330 0 330 0 0 900 0 900 25 6 c25 6 29 16 25 64 -1 22 4 19 57 -32 32 -31 85
-82 118 -113 33 -31 152 -146 265 -255 113 -108 221 -212 240 -230 19 -18 136
-130 259 -249 123 -119 243 -234 266 -256 23 -22 138 -132 255 -245 117 -113
234 -225 260 -250 26 -25 92 -89 147 -142 l100 -98 396 0 397 0 0 30 c0 31 -3
35 -283 303 -45 43 -172 165 -282 272 -110 106 -225 217 -256 246 -63 60 -419
404 -539 519 -42 41 -157 152 -255 245 -339 325 -520 503 -515 507 13 11 179
156 210 184 19 17 80 71 135 119 110 97 226 199 261 230 12 11 37 33 55 49 50
43 193 170 199 176 3 3 77 68 165 145 88 77 176 154 195 171 19 17 98 87 175
155 77 68 156 138 175 155 19 17 80 71 135 119 55 48 116 101 135 119 19 17
71 63 115 101 44 39 96 85 115 102 l35 33 -416 0 -417 0 -143 -126 c-79 -69
-155 -136 -169 -148 -22 -20 -177 -157 -255 -225 -16 -14 -84 -73 -150 -131
-66 -58 -122 -107 -125 -110 -3 -3 -99 -89 -215 -190 -115 -101 -215 -189
-221 -195 -16 -15 -61 -54 -239 -210 -88 -77 -162 -142 -165 -145 -3 -3 -39
-34 -80 -70 -41 -36 -82 -72 -90 -80 -41 -41 -59 -52 -79 -45 l-21 6 0 1609 0
1610 -330 0 -330 0 -2 -1489z"/>
</g>
</svg>
