<?xml version="1.0" standalone="no"?>
<!DOCTYPE svg PUBLIC "-//W3C//DTD SVG 20010904//EN"
 "http://www.w3.org/TR/2001/REC-SVG-20010904/DTD/svg10.dtd">
<svg version="1.0" xmlns="http://www.w3.org/2000/svg"
 width="700.000000pt" height="700.000000pt" viewBox="0 0 700.000000 700.000000"
 preserveAspectRatio="xMidYMid meet">
<metadata>
Created by potrace 1.14, written by Peter Selinger 2001-2017
</metadata>
<g transform="translate(0.000000,700.000000) scale(0.100000,-0.100000)"
fill="#000000" stroke="none">
<path d="M3528 5031 l-3 -1749 -110 40 c-60 22 -141 51 -180 65 -38 13 -79 28
-90 33 -11 4 -33 13 -50 18 -61 22 -261 94 -280 102 -11 5 -117 43 -235 85
-118 42 -224 80 -235 85 -11 4 -103 38 -205 74 -102 37 -207 75 -235 85 -27
11 -81 31 -120 44 -143 52 -854 310 -960 349 -60 22 -121 44 -135 48 -14 4
-69 24 -122 44 l-98 36 0 -224 0 -223 43 -16 c23 -9 177 -63 342 -122 165 -58
323 -114 350 -125 28 -10 104 -37 170 -61 66 -23 167 -59 225 -80 92 -33 889
-317 1255 -446 72 -26 133 -49 137 -53 4 -3 -29 -18 -75 -33 -45 -16 -104 -37
-132 -47 -27 -10 -126 -46 -220 -79 -93 -33 -336 -119 -540 -191 -203 -72
-422 -149 -485 -171 -63 -22 -124 -44 -135 -49 -11 -5 -112 -41 -225 -80 -202
-70 -287 -100 -385 -136 -27 -11 -52 -19 -55 -20 -3 0 -12 -3 -20 -7 -8 -3
-68 -25 -133 -48 l-118 -42 1 -223 1 -223 97 35 c135 50 179 66 322 117 166
60 444 160 555 201 203 75 321 118 330 121 6 1 17 5 25 8 8 4 141 52 295 108
154 55 296 106 315 113 19 7 157 57 305 111 249 90 367 133 405 148 8 3 96 35
195 70 99 36 188 68 198 72 16 7 17 -34 17 -769 l0 -776 330 0 330 0 2 969 3
969 136 -131 c267 -258 555 -535 589 -567 19 -18 136 -130 259 -249 123 -119
243 -234 266 -256 23 -22 138 -132 255 -245 117 -113 234 -225 260 -250 26
-25 92 -89 147 -142 l100 -98 396 0 397 0 0 30 c0 31 -3 35 -283 303 -45 43
-172 165 -282 272 -110 106 -225 217 -256 246 -63 60 -419 404 -539 519 -42
41 -157 152 -255 245 -339 325 -520 503 -515 507 13 11 179 156 210 184 19 17
80 71 135 119 110 97 226 199 261 230 12 11 37 33 55 49 50 43 193 170 199
176 3 3 77 68 165 145 88 77 176 154 195 171 19 17 98 87 175 155 77 68 156
138 175 155 19 17 80 71 135 119 55 48 116 101 135 119 19 17 71 63 115 101
44 39 96 85 115 102 l35 33 -416 0 -417 0 -143 -126 c-79 -69 -155 -136 -169
-148 -22 -20 -177 -157 -255 -225 -16 -14 -84 -73 -150 -131 -66 -58 -122
-107 -125 -110 -3 -3 -99 -89 -215 -190 -115 -101 -215 -189 -221 -195 -16
-15 -61 -54 -239 -210 -88 -77 -162 -142 -165 -145 -3 -3 -39 -34 -80 -70 -41
-36 -88 -78 -105 -94 -16 -15 -42 -37 -57 -48 l-28 -19 0 1630 0 1631 -330 0
-330 0 -2 -1749z"/>
</g>
</svg>
