<?xml version="1.0" encoding="utf-8"?>
<svg id="master-artboard" viewBox="0 0 50 50" version="1.1" xmlns="http://www.w3.org/2000/svg" x="0px" y="0px" style="enable-background:new 0 0 336 235.2;" width="50px" height="50px"><defs><radialGradient id="gradient-0" gradientUnits="objectBoundingBox" cx="0.5" cy="0.5" r="0.5" gradientTransform="matrix(0.7506029009819031, 0.8669837713241577, -0.7256404757499695, 0.6651862561702728, 0.48751869797706604, -0.26608501374721527)">
                <stop offset="0" style="stop-color: #c863ff"/>
                <stop offset="1" style="stop-color: #a400fc"/>
              </radialGradient></defs><rect id="ee-background" x="0" y="0" width="50" height="50" style="fill: white; fill-opacity: 0; pointer-events: none;"/><g transform="matrix(0.2850626741189399, 0, 0, 0.2850626741189399, -122.87626780489236, -167.06096321984174)"><path d="M 562.5999755859375 646.9000244140625 L 545.5999755859375 629.9000244140625 L 518.7000122070312 656.7000122070312 L 491.8999938964844 629.9000244140625 L 474.8999938964844 646.9000244140625 L 501.70001220703125 673.7999877929688 L 474.8999938964844 700.5999755859375 L 491.8999938964844 717.5999755859375 L 518.7000122070312 690.7999877929688 L 545.5999755859375 717.5999755859375 L 562.5999755859375 700.5999755859375 L 535.7999877929688 673.7999877929688 Z" class="st0" style="fill: rgb(15, 255, 183);" transform="matrix(1, 0, 0, 1, 0.000016797104763099924, -0.00004439499048203288)"/></g><g transform="matrix(0.23020237126426962, 0, 0, 0.23020237126426962, -92.6334225085471, -264.1111308217243)"><g id="g-1" transform="matrix(1, 0, 0, 1, 0, 0)">
	<g id="g-2">
		<g>
			<path class="st0" d="M511,1310.2l-15.9-15.9h-22.5v-22.5l-15.9-15.9l15.9-15.9v-22.5h22.5l15.9-15.9l15.9,15.9h22.5v22.5&#10;&#9;&#9;&#9;&#9;l15.9,15.9l-15.9,15.9v22.5h-22.5L511,1310.2z M478.6,1288.4h19l13.4,13.4l13.4-13.4h19v-20.7h1.8l11.6-11.6l-13.4-13.4v-19h-19&#10;&#9;&#9;&#9;&#9;l-13.4-13.4l-13.4,13.4h-19v19l-13.4,13.4l13.4,13.4V1288.4z" style="fill: rgb(235, 254, 255);"/>
		</g>
	</g>
</g></g></svg>
